<?xml version="1.0" standalone="no"?>
<!DOCTYPE svg PUBLIC "-//W3C//DTD SVG 20010904//EN"
 "http://www.w3.org/TR/2001/REC-SVG-20010904/DTD/svg10.dtd">
<svg version="1.0" xmlns="http://www.w3.org/2000/svg"
 width="347.000000pt" height="581.000000pt" viewBox="0 0 347.000000 581.000000"
 preserveAspectRatio="xMidYMid meet">

<g transform="translate(0.000000,581.000000) scale(0.100000,-0.100000)"
fill="#000000" stroke="none">
<path d="M1225 5570 c-112 -23 -230 -88 -323 -180 -88 -86 -128 -154 -242
-405 -25 -56 -67 -213 -84 -320 -15 -90 -30 -243 -42 -430 -6 -105 10 -362 27
-430 6 -22 11 -58 12 -80 2 -29 7 -41 20 -43 13 -3 17 3 17 26 0 62 209 369
355 521 283 295 550 452 800 470 65 5 80 9 83 24 3 15 -5 17 -60 17 -173 -1
-442 -117 -623 -269 -213 -180 -386 -380 -520 -599 -26 -42 -41 -59 -46 -50
-14 27 -31 315 -25 428 10 168 33 382 52 476 l16 82 35 -24 c59 -40 85 -7 85
106 0 53 -15 90 -37 90 -8 0 -15 6 -15 13 0 27 121 255 164 309 124 156 319
251 481 233 36 -3 65 -9 65 -12 0 -2 -12 -24 -26 -49 -24 -41 -25 -44 -8 -51
10 -4 19 -2 22 5 2 8 8 7 19 -4 12 -11 13 -18 4 -27 -21 -21 -13 -39 17 -35
29 3 64 -23 59 -44 -1 -8 9 -13 25 -13 26 1 26 0 12 -27 -16 -30 -12 -48 10
-48 9 0 12 -9 8 -25 -3 -16 0 -25 8 -25 9 0 8 -7 -4 -25 -19 -28 -21 -51 -5
-60 11 -7 50 22 46 35 -1 4 23 40 53 80 50 67 53 73 36 85 -14 11 -15 17 -7
34 26 48 -7 59 -36 11 -9 -16 -21 -30 -26 -30 -5 0 1 15 13 33 12 17 24 40 27
50 8 24 16 21 42 -14 50 -67 110 -297 117 -448 2 -58 7 -107 10 -110 13 -13
34 36 34 78 0 110 -60 373 -105 461 -32 61 -117 148 -168 170 -42 18 -243 51
-302 49 -16 -1 -48 -5 -70 -9z m374 -87 c52 -33 60 -48 33 -62 -17 -9 -19 -8
-15 9 6 23 -16 27 -36 8 -10 -11 -11 -10 -6 4 4 9 4 22 1 27 -8 12 -36 3 -36
-11 0 -6 -13 -26 -30 -45 -34 -38 -41 -35 -10 4 26 33 25 51 -2 73 -17 13 -27
15 -35 8 -10 -8 -13 -6 -13 7 0 16 7 17 52 12 30 -4 70 -18 97 -34z m41 -237
c0 -2 -8 -10 -17 -17 -16 -13 -17 -12 -4 4 13 16 21 21 21 13z m-910 -356 c0
-22 -1 -23 -16 -8 -11 10 -14 23 -9 38 6 18 9 20 16 9 5 -8 9 -25 9 -39z"/>
<path d="M1325 5489 c-13 -24 -14 -34 -4 -45 26 -31 49 -6 49 54 0 32 -27 27
-45 -9z"/>
<path d="M1700 5229 c0 -7 -29 -48 -65 -92 -36 -44 -64 -85 -62 -91 6 -20 47
-19 53 1 7 24 11 29 67 103 51 68 58 90 27 90 -11 0 -20 -5 -20 -11z"/>
<path d="M1733 5173 c-7 -3 -13 -10 -13 -16 0 -7 -34 -52 -75 -102 -41 -49
-75 -95 -75 -102 0 -7 11 -13 23 -13 25 0 57 28 57 49 0 6 25 42 55 78 51 62
66 96 48 106 -5 2 -14 2 -20 0z"/>
<path d="M1747 5094 c-4 -4 -7 -14 -7 -22 0 -8 -34 -60 -76 -115 -77 -103 -87
-132 -44 -132 18 0 25 5 25 20 0 11 31 60 68 109 49 65 67 97 65 115 -3 25
-19 37 -31 25z"/>
<path d="M1027 5047 c-67 -67 -88 -158 -38 -165 30 -5 91 53 116 109 15 31 16
44 7 64 -16 34 -45 31 -85 -8z"/>
<path d="M1172 4803 c-5 -10 -19 -47 -31 -83 -22 -64 -24 -66 -113 -124 -154
-102 -328 -283 -328 -342 0 -33 28 -31 41 3 14 38 101 143 162 195 57 49 190
148 199 148 3 0 2 -18 -3 -41 -10 -43 -6 -59 16 -59 19 0 29 19 27 51 -1 15
11 54 28 87 20 41 30 78 32 118 3 59 -12 82 -30 47z"/>
<path d="M1937 4559 c-110 -11 -265 -49 -365 -91 -177 -74 -351 -226 -489
-429 -123 -181 -284 -529 -332 -718 -54 -214 -8 -588 114 -941 138 -396 400
-686 801 -887 89 -44 121 -55 164 -56 44 -2 55 1 58 16 3 14 -4 17 -41 17 -81
0 -349 147 -513 281 -134 109 -262 275 -353 457 -167 333 -259 859 -193 1104
49 182 196 506 302 668 205 311 403 453 730 522 54 11 138 20 195 21 88 1 107
-2 158 -26 53 -24 187 -138 187 -159 0 -22 -30 -4 -45 28 -12 25 -21 34 -33
29 -8 -3 -19 0 -23 7 -6 9 -11 9 -23 -1 -13 -11 -16 -11 -16 3 0 9 -8 16 -20
16 -31 0 -28 -57 3 -62 18 -2 21 -9 19 -31 -2 -17 3 -29 13 -33 8 -3 15 -12
15 -20 0 -8 5 -14 10 -14 6 0 8 -11 4 -25 -4 -18 -2 -25 9 -25 8 0 17 -7 21
-15 8 -22 34 -18 47 8 6 12 21 32 33 45 19 22 20 25 4 36 -10 7 -13 17 -9 25
6 8 24 -7 58 -51 l51 -63 -46 -17 c-25 -10 -48 -16 -50 -14 -2 3 6 18 18 34
22 29 22 68 1 60 -5 -2 -28 -30 -50 -62 -32 -48 -38 -63 -30 -79 11 -20 20
-19 83 8 l38 16 -23 -31 c-13 -18 -28 -38 -33 -45 -13 -17 0 -45 21 -45 10 0
33 9 52 21 l35 21 -19 -29 c-10 -15 -29 -44 -42 -63 -43 -64 -20 -90 47 -55
31 16 41 45 15 45 -21 0 -20 2 21 67 l37 57 38 -75 c20 -42 53 -122 72 -180
32 -96 87 -317 87 -351 0 -8 -18 -34 -40 -57 -52 -55 -130 -171 -130 -193 0
-35 28 -17 63 40 54 86 108 146 118 130 14 -22 10 -85 -5 -91 -19 -8 -236
-296 -236 -314 0 -18 36 -17 43 2 4 8 52 75 109 150 l103 136 8 -48 c5 -26 9
-156 10 -288 1 -330 -12 -411 -187 -1225 -83 -383 -107 -530 -89 -537 7 -3 16
-3 19 0 3 3 21 88 39 189 19 101 65 327 104 503 145 664 175 908 151 1245 -32
466 -132 831 -292 1057 -82 117 -210 263 -269 307 -94 71 -176 89 -332 75z
m585 -440 c-4 -3 -20 -11 -36 -18 l-29 -12 17 25 c9 14 16 33 16 43 0 15 4 14
20 -7 10 -14 16 -28 12 -31z"/>
<path d="M1819 4140 c-155 -25 -381 -152 -513 -290 -133 -140 -215 -290 -276
-507 -35 -126 -42 -237 -13 -231 14 2 18 16 19 63 3 82 64 279 124 400 59 119
155 244 245 318 69 57 261 161 355 193 43 15 86 19 200 19 168 0 201 -10 245
-76 14 -22 30 -37 35 -34 32 20 -22 98 -89 128 -36 16 -70 21 -161 23 -63 2
-140 -1 -171 -6z"/>
<path d="M2543 3973 c-3 -10 -26 -45 -49 -79 -55 -78 -68 -109 -49 -124 24
-20 50 -7 48 24 -1 18 13 49 43 93 25 36 44 73 42 81 -4 23 -27 26 -35 5z"/>
<path d="M2575 3793 c-11 -20 -39 -62 -63 -92 -40 -52 -50 -86 -25 -86 12 0
92 103 117 152 33 66 5 91 -29 26z"/>
<path d="M2173 3725 c-3 -9 -3 -29 1 -45 18 -93 -37 -390 -114 -615 -65 -188
-234 -535 -261 -535 -14 0 -59 23 -59 30 0 4 25 51 56 104 30 53 74 150 96
214 35 103 42 134 51 262 6 80 11 168 11 195 1 79 -23 253 -38 283 -16 31 -71
84 -103 101 -40 21 -143 13 -203 -15 -148 -68 -330 -262 -330 -351 0 -36 11
-47 40 -38 22 7 27 31 8 38 -19 7 22 80 84 150 58 66 130 122 206 161 68 35
154 36 202 3 52 -34 68 -72 85 -198 12 -94 13 -143 4 -279 -9 -144 -15 -179
-46 -275 -34 -107 -129 -299 -163 -330 -10 -9 -44 -20 -76 -25 -33 -5 -88 -24
-123 -42 -78 -40 -120 -95 -146 -193 -16 -58 -17 -72 -5 -103 22 -63 50 -66
50 -5 0 62 83 121 207 148 29 6 37 2 81 -42 39 -39 51 -60 67 -118 21 -74 26
-195 11 -252 -8 -29 -6 -33 12 -33 11 0 24 6 30 13 16 19 82 324 82 378 0 35
-9 65 -34 111 l-34 65 30 44 c58 84 205 402 251 544 83 257 107 380 107 561 0
87 -3 104 -15 104 -9 0 -18 -7 -22 -15z m-482 -1217 c22 21 46 14 78 -23 48
-55 81 -128 81 -180 0 -44 -31 -190 -36 -170 -28 116 -48 161 -95 210 -28 29
-61 56 -74 59 -32 8 -171 -37 -214 -69 -19 -13 -36 -23 -38 -21 -11 11 44 110
75 137 63 55 176 89 199 59 9 -12 14 -13 24 -2z"/>
<path d="M2590 3605 c-48 -62 -70 -100 -66 -111 3 -8 10 -14 15 -12 15 5 151
190 151 205 0 33 -34 6 -100 -82z"/>
<path d="M2635 3503 c-83 -104 -110 -163 -75 -163 5 0 25 24 43 53 19 28 50
72 70 95 21 24 37 50 37 58 0 30 -32 12 -75 -43z"/>
<path d="M2698 3093 c-83 -113 -208 -303 -208 -318 0 -35 37 -12 68 43 18 31
73 113 122 182 50 69 90 131 90 138 0 28 -32 8 -72 -45z"/>
<path d="M2715 2938 c-67 -95 -214 -332 -209 -339 17 -28 43 6 196 249 54 84
63 112 38 112 -5 0 -16 -10 -25 -22z"/>
<path d="M2687 2727 c-24 -32 -138 -198 -234 -340 -29 -43 -53 -85 -53 -93 0
-33 31 -9 77 59 27 39 95 140 152 222 57 83 105 155 108 161 2 6 -3 14 -11 17
-10 4 -24 -5 -39 -26z"/>
<path d="M2604 2388 c-31 -62 -85 -162 -119 -223 -123 -217 -152 -286 -130
-305 11 -9 22 8 58 84 25 52 77 150 115 218 88 156 162 303 162 323 0 42 -34
4 -86 -97z"/>
<path d="M2588 2103 c-9 -10 -26 -38 -38 -61 -12 -24 -62 -110 -111 -190 -49
-81 -89 -152 -89 -159 0 -7 8 -13 18 -12 11 0 43 43 92 126 118 199 170 294
164 304 -8 14 -19 11 -36 -8z"/>
<path d="M2535 1853 c-16 -37 -63 -133 -105 -213 -92 -174 -125 -252 -116
-275 10 -27 27 -13 46 40 10 28 66 144 124 259 59 114 106 218 104 229 -6 41
-25 26 -53 -40z"/>
<path d="M1800 737 c-14 -6 -99 -44 -190 -85 -209 -94 -230 -103 -230 -98 0 2
45 34 100 70 91 60 123 96 86 96 -8 0 -56 -16 -106 -35 -90 -35 -117 -42 -93
-27 7 4 14 19 15 32 4 36 -19 36 -167 -5 -163 -45 -340 -115 -340 -135 0 -17
60 -16 81 1 29 24 340 126 351 115 2 -2 -64 -43 -147 -91 -82 -48 -153 -91
-156 -97 -3 -5 -1 -15 5 -21 7 -7 54 10 163 61 211 98 247 111 171 60 -56 -37
-95 -77 -88 -88 15 -24 78 -5 266 80 109 50 202 90 205 90 3 0 -30 -29 -73
-64 -87 -70 -136 -122 -130 -140 12 -37 102 0 415 171 34 19 62 32 62 29 0 -2
-50 -41 -110 -85 -113 -83 -134 -106 -109 -122 21 -14 46 -5 239 86 200 95
291 133 272 113 -7 -7 -59 -44 -115 -83 -108 -75 -131 -105 -78 -105 17 0 121
34 232 75 111 42 203 74 205 72 2 -2 -45 -42 -105 -90 -129 -101 -142 -119
-106 -143 32 -21 41 -19 323 57 122 34 253 64 290 67 50 5 67 11 67 22 0 20
-55 25 -128 10 -33 -6 -147 -35 -255 -65 -242 -66 -267 -71 -257 -55 4 6 61
54 126 106 123 97 140 117 121 136 -16 16 -86 -2 -259 -67 -80 -30 -148 -55
-151 -55 -3 0 21 19 54 41 114 80 151 122 123 140 -23 14 -212 -57 -401 -152
-43 -22 -80 -39 -84 -39 -4 0 33 30 82 66 49 36 106 82 126 101 36 35 41 63
11 63 -8 0 -126 -57 -261 -126 -136 -69 -237 -116 -225 -103 11 12 70 60 129
108 110 88 136 122 92 120 -13 0 -34 -5 -48 -12z"/>
</g>
</svg>
