<?xml version="1.0" standalone="no"?>
<!DOCTYPE svg PUBLIC "-//W3C//DTD SVG 20010904//EN"
 "http://www.w3.org/TR/2001/REC-SVG-20010904/DTD/svg10.dtd">
<svg version="1.0" xmlns="http://www.w3.org/2000/svg"
 width="319.000000pt" height="477.000000pt" viewBox="0 0 319.000000 477.000000"
 preserveAspectRatio="xMidYMid meet">

<g transform="translate(0.000000,477.000000) scale(0.100000,-0.100000)"
fill="#000000" stroke="none">
<path d="M1374 4555 c-34 -7 -88 -26 -120 -41 -68 -32 -183 -137 -222 -204
-25 -41 -27 -56 -30 -170 -3 -119 11 -210 42 -281 5 -11 -7 -24 -46 -49 -29
-18 -55 -35 -57 -36 -1 -1 0 -8 4 -14 5 -7 18 -4 43 11 146 87 337 196 447
253 l130 68 22 -26 c12 -14 27 -26 33 -26 14 0 13 7 -6 36 -9 13 -15 26 -13
28 3 3 193 90 265 122 7 3 17 -9 23 -26 14 -41 34 -29 25 14 l-6 33 87 37 c48
20 90 36 95 36 4 0 13 7 20 15 10 12 9 16 -4 21 -9 3 -22 2 -29 -4 -16 -12
-187 -85 -190 -81 -1 2 -20 31 -42 64 -79 121 -93 134 -196 186 -110 55 -155
60 -275 34z m262 -59 c95 -46 112 -62 189 -179 32 -48 36 -60 24 -68 -8 -4
-72 -34 -142 -65 -123 -55 -128 -56 -142 -38 -22 28 -151 244 -166 277 -12 26
-39 38 -39 17 0 -12 100 -185 152 -265 22 -32 36 -61 31 -62 -4 -2 -73 -39
-153 -82 -108 -58 -149 -76 -162 -69 -10 5 -47 69 -83 143 -42 86 -72 135 -81
135 -9 0 -14 -3 -12 -7 40 -90 129 -261 141 -272 10 -7 17 -17 17 -21 0 -5
-30 -25 -66 -45 -52 -29 -68 -34 -75 -24 -22 36 -42 161 -43 260 0 129 15 165
106 258 97 98 212 147 353 150 52 1 73 -5 151 -43z"/>
<path d="M1194 4366 c-8 -22 67 -212 112 -283 19 -29 41 -53 49 -53 19 0 19
14 -1 31 -25 21 -130 246 -138 296 -4 22 -15 26 -22 9z"/>
<path d="M1740 3959 c-44 -27 -43 -26 -36 -38 7 -11 106 37 106 52 0 14 -35 7
-70 -14z"/>
<path d="M1550 3805 c0 -9 10 -15 26 -15 19 0 47 -21 105 -78 105 -103 106
-129 3 -180 -23 -12 -62 -26 -88 -33 -51 -13 -58 -36 -10 -31 38 4 153 57 182
84 25 25 28 57 8 96 -16 29 -115 128 -156 156 -31 20 -70 21 -70 1z"/>
<path d="M1302 3764 c-40 -25 -72 -53 -72 -61 0 -18 0 -18 88 37 39 25 71 51
72 58 0 19 -12 15 -88 -34z"/>
<path d="M2240 3070 c-63 -4 -139 -12 -168 -20 -30 -7 -71 -10 -92 -7 -44 6
-55 0 -39 -20 15 -17 56 -17 144 1 86 18 385 31 404 18 26 -19 32 -112 29
-506 -1 -282 1 -401 9 -403 27 -9 30 842 3 898 -23 50 -46 53 -290 39z"/>
<path d="M1351 2894 c-104 -96 -189 -222 -175 -258 9 -24 34 -19 84 14 60 40
142 70 191 70 36 0 42 -3 52 -30 11 -28 37 -42 37 -20 0 22 -24 59 -46 70 -44
24 -179 -13 -251 -70 -14 -11 -30 -20 -35 -20 -22 0 54 111 134 194 l86 90 32
-33 c25 -25 42 -62 80 -180 27 -82 62 -176 79 -209 33 -65 30 -72 -26 -72 -14
0 -85 -20 -157 -44 -72 -24 -148 -47 -168 -51 -40 -8 -77 -29 -67 -39 8 -8
154 31 270 73 53 18 128 35 193 42 98 12 107 11 126 -6 l20 -18 -22 -24 c-17
-19 -19 -26 -9 -36 10 -9 14 -8 22 6 6 9 14 17 19 17 12 0 24 -111 14 -128
-10 -15 -54 -33 -269 -108 -128 -45 -180 -69 -420 -190 -167 -85 -211 -98
-299 -90 -91 8 -163 32 -181 59 -19 30 -32 95 -44 213 -5 54 -14 144 -20 199
-19 190 -33 432 -26 467 4 20 19 51 34 68 25 30 34 33 111 42 47 6 148 12 225
13 143 4 186 15 105 27 -68 10 -155 9 -249 -3 -48 -6 -106 -13 -131 -16 -56
-6 -102 -52 -119 -118 -13 -51 -6 -183 31 -560 22 -230 31 -293 50 -333 19
-40 95 -73 194 -85 106 -13 144 -2 329 91 254 128 281 140 400 181 66 23 146
53 178 67 32 13 67 24 77 24 10 0 21 6 23 13 3 6 6 0 6 -15 1 -43 29 -36 33 9
l3 37 97 32 c54 19 150 44 213 56 76 15 115 27 115 36 0 15 -50 10 -167 -18
l-71 -17 -26 28 c-19 20 -46 32 -96 43 -38 9 -75 16 -83 16 -7 0 -26 14 -43
31 -27 29 -33 31 -82 26 l-52 -6 -31 61 c-17 34 -46 109 -65 167 -69 213 -83
245 -111 259 -44 20 -59 15 -122 -44z m637 -554 c23 -11 42 -23 42 -27 0 -5
-36 -20 -79 -35 l-80 -26 -6 42 c-4 22 -9 49 -12 60 -5 17 -1 18 43 11 27 -3
68 -15 92 -25z"/>
<path d="M1762 2879 c2 -6 20 -17 40 -24 21 -7 60 -27 89 -46 50 -32 51 -33
28 -42 -75 -30 -132 -62 -173 -98 l-47 -41 21 53 c31 78 58 119 76 112 16 -6
20 22 4 32 -18 11 -46 -13 -72 -62 -31 -56 -78 -192 -78 -223 0 -25 23 -22 28
4 9 47 147 163 223 187 65 21 89 31 89 40 0 10 -101 76 -155 100 -45 21 -78
24 -73 8z"/>
<path d="M2499 2115 c-1 -6 -1 -33 1 -61 2 -48 0 -52 -29 -64 -22 -9 -57 -10
-123 -6 -51 4 -205 2 -343 -4 -217 -9 -266 -9 -370 5 -66 9 -142 23 -169 31
-26 8 -52 11 -57 8 -15 -9 11 -46 27 -40 8 3 34 1 57 -4 137 -31 273 -41 412
-30 77 6 235 10 350 8 262 -4 270 -1 270 85 0 31 -6 62 -13 69 -6 6 -13 8 -13
3z"/>
<path d="M2315 1758 c-5 -51 -8 -118 -7 -148 5 -202 24 -527 38 -650 10 -80
20 -217 23 -304 4 -114 10 -161 19 -164 19 -6 15 196 -9 398 -17 139 -22 256
-26 568 -4 302 -8 392 -18 392 -8 0 -15 -30 -20 -92z"/>
<path d="M1136 1682 c-2 -4 2 -30 9 -58 23 -88 38 -485 32 -816 -5 -289 0
-364 20 -270 12 58 8 800 -6 947 -15 164 -34 231 -55 197z"/>
<path d="M1680 1452 c0 -6 7 -37 15 -69 17 -68 35 -316 35 -481 0 -164 11
-312 23 -312 13 0 2 529 -13 676 -12 114 -30 186 -48 192 -6 2 -12 -1 -12 -6z"/>
<path d="M1557 1253 c-6 -9 -10 -49 -8 -75 2 -26 46 -23 65 4 9 12 16 35 16
50 0 25 -3 28 -34 28 -19 0 -37 -3 -39 -7z m43 -37 c0 -16 -18 -31 -27 -22 -8
8 5 36 17 36 5 0 10 -6 10 -14z"/>
<path d="M2083 1086 c-79 -45 -193 -130 -193 -143 0 -14 26 -18 32 -5 4 12
178 132 190 132 5 0 6 -5 2 -11 -3 -6 -7 -91 -8 -188 -2 -169 -3 -178 -28
-226 -15 -28 -41 -66 -59 -83 -57 -56 -102 -56 -133 -2 -17 29 -21 55 -23 150
-2 85 -6 115 -15 115 -10 0 -13 -28 -12 -112 1 -96 5 -118 25 -160 38 -76 94
-83 165 -21 85 75 114 160 107 318 -3 58 -1 131 5 163 6 36 6 57 -1 57 -5 0
-5 6 2 13 10 13 6 27 -8 27 -3 0 -25 -11 -48 -24z"/>
<path d="M1545 690 c-3 -5 -3 -10 0 -10 3 0 -1 -10 -9 -21 -18 -26 -11 -49 15
-49 16 0 49 34 49 52 0 10 -30 38 -40 38 -5 0 -12 -4 -15 -10z m16 -43 c-10
-9 -11 -8 -5 6 3 10 9 15 12 12 3 -3 0 -11 -7 -18z"/>
<path d="M2223 439 c-48 -45 -102 -84 -141 -102 -57 -27 -71 -29 -139 -25 -57
4 -79 10 -89 22 -13 19 -45 18 -51 0 -5 -16 73 -45 139 -51 103 -10 216 46
331 165 77 79 37 71 -50 -9z"/>
<path d="M1305 413 c-77 -16 -145 -49 -145 -70 0 -18 10 -16 45 7 55 36 166
54 299 47 153 -9 196 -16 196 -33 0 -8 7 -14 15 -14 25 0 18 39 -9 50 -32 12
-202 30 -273 29 -32 0 -89 -7 -128 -16z"/>
</g>
</svg>
