<?xml version="1.0" standalone="no"?>
<!DOCTYPE svg PUBLIC "-//W3C//DTD SVG 20010904//EN"
 "http://www.w3.org/TR/2001/REC-SVG-20010904/DTD/svg10.dtd">
<svg version="1.0" xmlns="http://www.w3.org/2000/svg"
 width="173.000000pt" height="170.000000pt" viewBox="0 0 173.000000 170.000000"
 preserveAspectRatio="xMidYMid meet">

<g transform="translate(0.000000,170.000000) scale(0.100000,-0.100000)"
fill="#000000" stroke="none">
<path d="M1160 1440 c-12 -8 -13 -13 -2 -30 15 -24 15 -30 2 -30 -5 0 -10 6
-10 14 0 7 -7 20 -16 27 -33 27 -73 -58 -42 -89 38 -38 133 10 126 65 -4 32
-37 56 -58 43z"/>
<path d="M247 979 c-35 -18 -38 -23 -35 -57 2 -30 8 -38 31 -46 30 -11 64 8
101 57 41 55 -23 86 -97 46z"/>
<path d="M1459 704 c-13 -7 -34 -13 -46 -14 -40 0 -151 -79 -139 -98 11 -18
37 -14 81 13 22 13 44 25 49 25 18 0 -4 -102 -34 -158 -67 -127 -161 -206
-293 -247 -96 -31 -180 -32 -303 -5 -108 24 -123 24 -131 4 -8 -22 8 -34 53
-40 21 -3 67 -11 102 -19 149 -35 330 1 450 89 115 85 203 230 206 338 2 52 5
61 26 71 28 14 38 42 17 50 -7 3 -24 -1 -38 -9z"/>
</g>
</svg>
