<?xml version="1.0" encoding="UTF-8" standalone="no"?>
<svg
   version="1.1"
   viewBox="0 0 470 246"
   enable-background="new 0 0 470 470"
   id="svg67"
   sodipodi:docname="truncated_car.svg"
   inkscape:version="1.2.1 (9c6d41e410, 2022-07-14)"
   width="470"
   height="246"
   inkscape:export-filename="truncated_car.png"
   inkscape:export-xdpi="96"
   inkscape:export-ydpi="96"
   xmlns:inkscape="http://www.inkscape.org/namespaces/inkscape"
   xmlns:sodipodi="http://sodipodi.sourceforge.net/DTD/sodipodi-0.dtd"
   xmlns="http://www.w3.org/2000/svg"
   xmlns:svg="http://www.w3.org/2000/svg">
  <defs
     id="defs71">
    <rect
       x="307.3096"
       y="1.0586905"
       width="203.07182"
       height="68.027153"
       id="rect3167" />
    <rect
       x="301.05716"
       y="34.959648"
       width="79.742233"
       height="46.016506"
       id="rect3155" />
    <marker
       style="overflow:visible"
       id="Arrow2"
       refX="0"
       refY="0"
       orient="auto-start-reverse"
       inkscape:stockid="Arrow2"
       markerWidth="7.6999998"
       markerHeight="5.5999999"
       viewBox="0 0 7.7 5.6"
       inkscape:isstock="true"
       inkscape:collect="always"
       preserveAspectRatio="xMidYMid">
      <path
         transform="scale(0.7)"
         d="M -2,-4 9,0 -2,4 c 2,-2.33 2,-5.66 0,-8 z"
         style="fill:context-stroke;fill-rule:evenodd;stroke:none"
         id="arrow2L" />
    </marker>
    <rect
       x="307.3096"
       y="1.0586905"
       width="203.07182"
       height="68.027153"
       id="rect7001" />
    <rect
       x="307.3096"
       y="1.0586905"
       width="203.07182"
       height="68.027153"
       id="rect7090" />
  </defs>
  <sodipodi:namedview
     id="namedview69"
     pagecolor="#505050"
     bordercolor="#eeeeee"
     borderopacity="1"
     inkscape:showpageshadow="0"
     inkscape:pageopacity="0"
     inkscape:pagecheckerboard="0"
     inkscape:deskcolor="#505050"
     showgrid="true"
     inkscape:zoom="2.4884141"
     inkscape:cx="236.49601"
     inkscape:cy="157.73098"
     inkscape:window-width="1912"
     inkscape:window-height="1014"
     inkscape:window-x="4"
     inkscape:window-y="62"
     inkscape:window-maximized="1"
     inkscape:current-layer="svg67">
    <inkscape:grid
       type="xygrid"
       id="grid350"
       originx="0"
       originy="0" />
  </sodipodi:namedview>
  <text
     xml:space="preserve"
     id="text3153"
     style="font-style:normal;font-weight:normal;font-size:40px;line-height:1.25;font-family:sans-serif;white-space:pre;shape-inside:url(#rect3155);display:inline;fill:#000000;fill-opacity:1;stroke:none"><tspan
       x="301.05664"
       y="117.97656"
       id="tspan7192"><tspan
         dx="0 26.679993 21.320038 21.480026 19.720001 21.360016"
         id="tspan7190">Sensor</tspan></tspan></text>
  <rect
     style="fill:#b60000;stroke:#020000;stroke-width:3.77953"
     id="rect283"
     width="27.243214"
     height="19.487221"
     x="237.16641"
     y="38.583775"
     ry="9.5192051" />
  <path
     style="fill:#ff0000;fill-opacity:0.197432;stroke:none;stroke-width:1px;stroke-linecap:butt;stroke-linejoin:miter;stroke-opacity:0.556406"
     d="M 250.46224,59.047766 151.0243,178.70809 352.63011,178.54801 Z"
     id="path399" />
  <rect
     style="fill:#666666;fill-opacity:1;stroke:#020000;stroke-width:1.98;stroke-dasharray:none"
     id="rect1130"
     width="342.42841"
     height="17.69426"
     x="68.906662"
     y="180.13908" />
  <path
     style="fill:none;stroke:#000000;stroke-width:2.37341px;stroke-linecap:butt;stroke-linejoin:miter;stroke-opacity:1;marker-end:url(#Arrow2)"
     d="M 132.21842,160.21866 H 375.43757"
     id="path2744" />
  <text
     xml:space="preserve"
     id="text3165"
     style="font-style:normal;font-weight:normal;font-size:14.6667px;line-height:1.25;font-family:sans-serif;white-space:pre;shape-inside:url(#rect3167);display:inline;fill:#000000;fill-opacity:1;stroke:none"
     transform="translate(-78.707214,17.461747)"><tspan
       x="307.31055"
       y="14.625292"
       id="tspan7194">Sensor</tspan></text>
  <g
     id="g3251"
     transform="matrix(0.14555505,0,0,0.14555505,220.10226,118.42016)"
     style="fill:#000000;fill-opacity:0.503692;stroke:#000000;stroke-opacity:1">
    <path
       d="m 126.184,358.951 c 19.299,0 35,-15.701 35,-35 0,-19.299 -15.701,-35 -35,-35 -19.299,0 -35,15.701 -35,35 0,19.299 15.701,35 35,35 z m 0,-55 c 11.028,0 20,8.972 20,20 0,11.028 -8.972,20 -20,20 -11.028,0 -20,-8.972 -20,-20 0,-11.028 8.971,-20 20,-20 z"
       id="path3243"
       style="fill:#000000;fill-opacity:0.503692;stroke:#000000;stroke-opacity:1" />
    <path
       d="m 343.816,288.951 c -19.299,0 -35,15.701 -35,35 0,19.299 15.701,35 35,35 19.299,0 35,-15.701 35,-35 0,-19.299 -15.701,-35 -35,-35 z m 0,55 c -11.028,0 -20,-8.972 -20,-20 0,-11.028 8.972,-20 20,-20 11.028,0 20,8.972 20,20 0,11.028 -8.971,20 -20,20 z"
       id="path3245"
       style="fill:#000000;fill-opacity:0.503692;stroke:#000000;stroke-opacity:1" />
    <path
       d="m 137.5,116.049 h 23.779 c 4.143,0 7.5,-3.358 7.5,-7.5 0,-4.142 -3.357,-7.5 -7.5,-7.5 H 137.5 c -10.423,0 -27.031,7.176 -34.177,14.767 l -60.088,63.845 c -2.051,2.179 -2.609,5.368 -1.423,8.115 1.187,2.747 3.893,4.525 6.885,4.525 h 290.271 c 2.562,0 4.945,-1.307 6.323,-3.467 1.377,-2.159 1.558,-4.873 0.478,-7.195 L 314.915,115.274 C 311.6,108.228 300.287,101.049 292.5,101.049 H 191.279 c -4.143,0 -7.5,3.358 -7.5,7.5 l -0.001,68.752 H 66.056 l 48.19,-51.204 c 4.243,-4.508 17.066,-10.048 23.254,-10.048 z m 61.279,0 h 93.7 c 2.203,0.103 7.842,3.681 8.849,5.581 l 25.883,55.671 H 198.778 Z"
       id="path3247"
       style="fill:#000000;fill-opacity:0.503692;stroke:#000000;stroke-opacity:1" />
    <path
       d="m 470,257.692 c 0,-26.631 -20.555,-55.149 -45.819,-63.57 -0.017,-0.006 -35.078,-11.693 -35.078,-11.693 -5.854,-1.951 -13.576,-8.812 -16.203,-14.394 L 342.06,102.5 C 333.761,84.864 311.992,71.049 292.5,71.049 h -155 c -18.639,0 -43.247,10.632 -56.022,24.206 L 12.32,168.737 C 5.411,176.077 0,189.721 0,199.801 v 94.15 c 0,20.678 16.822,37.5 37.5,37.5 h 14.06 c 3.775,37.846 35.8,67.5 74.624,67.5 38.824,0 70.849,-29.654 74.624,-67.5 h 45.509 c 4.143,0 7.5,-3.358 7.5,-7.5 0,-4.142 -3.357,-7.5 -7.5,-7.5 h -45.509 c -3.775,-37.846 -35.8,-67.5 -74.624,-67.5 -38.824,0 -70.849,29.654 -74.624,67.5 H 37.5 c -12.406,0 -22.5,-10.093 -22.5,-22.5 v -94.15 c 0,-6.294 3.929,-16.2 8.242,-20.783 L 92.401,105.535 C 102.342,94.972 122.995,86.049 137.5,86.049 h 155 c 13.682,0 30.162,10.458 35.987,22.838 l 30.84,65.535 c 4.421,9.395 15.182,18.955 25.031,22.238 l 28.498,9.499 c -0.492,2.841 -0.748,5.729 -0.748,8.642 0,25.238 18.65,46.198 42.892,49.831 v 29.32 c 0,12.407 -8.357,22.5 -18.631,22.5 H 418.44 c -3.775,-37.846 -35.8,-67.5 -74.624,-67.5 -41.355,0 -75,33.645 -75,75 0,41.355 33.645,75 75,75 38.824,0 70.849,-29.654 74.624,-67.5 h 17.929 c 18.544,0 33.631,-16.822 33.631,-37.5 z m -343.816,6.259 c 33.084,0 60,26.916 60,60 0,33.084 -26.916,60 -60,60 -33.084,0 -60,-26.916 -60,-60 0,-33.084 26.916,-60 60,-60 z m 217.632,120 c -33.084,0 -60,-26.916 -60,-60 0,-33.084 26.916,-60 60,-60 33.084,0 60,26.916 60,60 0,33.084 -26.916,60 -60,60 z m 83.292,-169.15 c 0,-0.969 0.04,-1.934 0.117,-2.893 13.16,7.627 23.787,22.37 26.864,37.266 -15.466,-3.785 -26.981,-17.756 -26.981,-34.373 z"
       id="path3249"
       style="fill:#000000;fill-opacity:0.503692;stroke:#000000;stroke-opacity:1" />
  </g>
  <g
     id="g3267"
     transform="matrix(0.14555505,0,0,0.14555505,298.21515,118.42016)">
    <path
       d="m 126.184,358.951 c 19.299,0 35,-15.701 35,-35 0,-19.299 -15.701,-35 -35,-35 -19.299,0 -35,15.701 -35,35 0,19.299 15.701,35 35,35 z m 0,-55 c 11.028,0 20,8.972 20,20 0,11.028 -8.972,20 -20,20 -11.028,0 -20,-8.972 -20,-20 0,-11.028 8.971,-20 20,-20 z"
       id="path3259" />
    <path
       d="m 343.816,288.951 c -19.299,0 -35,15.701 -35,35 0,19.299 15.701,35 35,35 19.299,0 35,-15.701 35,-35 0,-19.299 -15.701,-35 -35,-35 z m 0,55 c -11.028,0 -20,-8.972 -20,-20 0,-11.028 8.972,-20 20,-20 11.028,0 20,8.972 20,20 0,11.028 -8.971,20 -20,20 z"
       id="path3261" />
    <path
       d="m 137.5,116.049 h 23.779 c 4.143,0 7.5,-3.358 7.5,-7.5 0,-4.142 -3.357,-7.5 -7.5,-7.5 H 137.5 c -10.423,0 -27.031,7.176 -34.177,14.767 l -60.088,63.845 c -2.051,2.179 -2.609,5.368 -1.423,8.115 1.187,2.747 3.893,4.525 6.885,4.525 h 290.271 c 2.562,0 4.945,-1.307 6.323,-3.467 1.377,-2.159 1.558,-4.873 0.478,-7.195 L 314.915,115.274 C 311.6,108.228 300.287,101.049 292.5,101.049 H 191.279 c -4.143,0 -7.5,3.358 -7.5,7.5 l -0.001,68.752 H 66.056 l 48.19,-51.204 c 4.243,-4.508 17.066,-10.048 23.254,-10.048 z m 61.279,0 h 93.7 c 2.203,0.103 7.842,3.681 8.849,5.581 l 25.883,55.671 H 198.778 Z"
       id="path3263" />
    <path
       d="m 470,257.692 c 0,-26.631 -20.555,-55.149 -45.819,-63.57 -0.017,-0.006 -35.078,-11.693 -35.078,-11.693 -5.854,-1.951 -13.576,-8.812 -16.203,-14.394 L 342.06,102.5 C 333.761,84.864 311.992,71.049 292.5,71.049 h -155 c -18.639,0 -43.247,10.632 -56.022,24.206 L 12.32,168.737 C 5.411,176.077 0,189.721 0,199.801 v 94.15 c 0,20.678 16.822,37.5 37.5,37.5 h 14.06 c 3.775,37.846 35.8,67.5 74.624,67.5 38.824,0 70.849,-29.654 74.624,-67.5 h 45.509 c 4.143,0 7.5,-3.358 7.5,-7.5 0,-4.142 -3.357,-7.5 -7.5,-7.5 h -45.509 c -3.775,-37.846 -35.8,-67.5 -74.624,-67.5 -38.824,0 -70.849,29.654 -74.624,67.5 H 37.5 c -12.406,0 -22.5,-10.093 -22.5,-22.5 v -94.15 c 0,-6.294 3.929,-16.2 8.242,-20.783 L 92.401,105.535 C 102.342,94.972 122.995,86.049 137.5,86.049 h 155 c 13.682,0 30.162,10.458 35.987,22.838 l 30.84,65.535 c 4.421,9.395 15.182,18.955 25.031,22.238 l 28.498,9.499 c -0.492,2.841 -0.748,5.729 -0.748,8.642 0,25.238 18.65,46.198 42.892,49.831 v 29.32 c 0,12.407 -8.357,22.5 -18.631,22.5 H 418.44 c -3.775,-37.846 -35.8,-67.5 -74.624,-67.5 -41.355,0 -75,33.645 -75,75 0,41.355 33.645,75 75,75 38.824,0 70.849,-29.654 74.624,-67.5 h 17.929 c 18.544,0 33.631,-16.822 33.631,-37.5 z m -343.816,6.259 c 33.084,0 60,26.916 60,60 0,33.084 -26.916,60 -60,60 -33.084,0 -60,-26.916 -60,-60 0,-33.084 26.916,-60 60,-60 z m 217.632,120 c -33.084,0 -60,-26.916 -60,-60 0,-33.084 26.916,-60 60,-60 33.084,0 60,26.916 60,60 0,33.084 -26.916,60 -60,60 z m 83.292,-169.15 c 0,-0.969 0.04,-1.934 0.117,-2.893 13.16,7.627 23.787,22.37 26.864,37.266 -15.466,-3.785 -26.981,-17.756 -26.981,-34.373 z"
       id="path3265" />
  </g>
  <g
     id="g4771"
     transform="matrix(0.14555505,0,0,0.14555505,141.91658,118.42016)"
     style="fill:#000000;fill-opacity:0.256649;stroke:#000000;stroke-opacity:1">
    <path
       d="m 126.184,358.951 c 19.299,0 35,-15.701 35,-35 0,-19.299 -15.701,-35 -35,-35 -19.299,0 -35,15.701 -35,35 0,19.299 15.701,35 35,35 z m 0,-55 c 11.028,0 20,8.972 20,20 0,11.028 -8.972,20 -20,20 -11.028,0 -20,-8.972 -20,-20 0,-11.028 8.971,-20 20,-20 z"
       id="path4763"
       style="fill:#000000;fill-opacity:0.256649;stroke:#000000;stroke-opacity:1" />
    <path
       d="m 343.816,288.951 c -19.299,0 -35,15.701 -35,35 0,19.299 15.701,35 35,35 19.299,0 35,-15.701 35,-35 0,-19.299 -15.701,-35 -35,-35 z m 0,55 c -11.028,0 -20,-8.972 -20,-20 0,-11.028 8.972,-20 20,-20 11.028,0 20,8.972 20,20 0,11.028 -8.971,20 -20,20 z"
       id="path4765"
       style="fill:#000000;fill-opacity:0.256649;stroke:#000000;stroke-opacity:1" />
    <path
       d="m 137.5,116.049 h 23.779 c 4.143,0 7.5,-3.358 7.5,-7.5 0,-4.142 -3.357,-7.5 -7.5,-7.5 H 137.5 c -10.423,0 -27.031,7.176 -34.177,14.767 l -60.088,63.845 c -2.051,2.179 -2.609,5.368 -1.423,8.115 1.187,2.747 3.893,4.525 6.885,4.525 h 290.271 c 2.562,0 4.945,-1.307 6.323,-3.467 1.377,-2.159 1.558,-4.873 0.478,-7.195 L 314.915,115.274 C 311.6,108.228 300.287,101.049 292.5,101.049 H 191.279 c -4.143,0 -7.5,3.358 -7.5,7.5 l -0.001,68.752 H 66.056 l 48.19,-51.204 c 4.243,-4.508 17.066,-10.048 23.254,-10.048 z m 61.279,0 h 93.7 c 2.203,0.103 7.842,3.681 8.849,5.581 l 25.883,55.671 H 198.778 Z"
       id="path4767"
       style="fill:#000000;fill-opacity:0.256649;stroke:#000000;stroke-opacity:1" />
    <path
       d="m 470,257.692 c 0,-26.631 -20.555,-55.149 -45.819,-63.57 -0.017,-0.006 -35.078,-11.693 -35.078,-11.693 -5.854,-1.951 -13.576,-8.812 -16.203,-14.394 L 342.06,102.5 C 333.761,84.864 311.992,71.049 292.5,71.049 h -155 c -18.639,0 -43.247,10.632 -56.022,24.206 L 12.32,168.737 C 5.411,176.077 0,189.721 0,199.801 v 94.15 c 0,20.678 16.822,37.5 37.5,37.5 h 14.06 c 3.775,37.846 35.8,67.5 74.624,67.5 38.824,0 70.849,-29.654 74.624,-67.5 h 45.509 c 4.143,0 7.5,-3.358 7.5,-7.5 0,-4.142 -3.357,-7.5 -7.5,-7.5 h -45.509 c -3.775,-37.846 -35.8,-67.5 -74.624,-67.5 -38.824,0 -70.849,29.654 -74.624,67.5 H 37.5 c -12.406,0 -22.5,-10.093 -22.5,-22.5 v -94.15 c 0,-6.294 3.929,-16.2 8.242,-20.783 L 92.401,105.535 C 102.342,94.972 122.995,86.049 137.5,86.049 h 155 c 13.682,0 30.162,10.458 35.987,22.838 l 30.84,65.535 c 4.421,9.395 15.182,18.955 25.031,22.238 l 28.498,9.499 c -0.492,2.841 -0.748,5.729 -0.748,8.642 0,25.238 18.65,46.198 42.892,49.831 v 29.32 c 0,12.407 -8.357,22.5 -18.631,22.5 H 418.44 c -3.775,-37.846 -35.8,-67.5 -74.624,-67.5 -41.355,0 -75,33.645 -75,75 0,41.355 33.645,75 75,75 38.824,0 70.849,-29.654 74.624,-67.5 h 17.929 c 18.544,0 33.631,-16.822 33.631,-37.5 z m -343.816,6.259 c 33.084,0 60,26.916 60,60 0,33.084 -26.916,60 -60,60 -33.084,0 -60,-26.916 -60,-60 0,-33.084 26.916,-60 60,-60 z m 217.632,120 c -33.084,0 -60,-26.916 -60,-60 0,-33.084 26.916,-60 60,-60 33.084,0 60,26.916 60,60 0,33.084 -26.916,60 -60,60 z m 83.292,-169.15 c 0,-0.969 0.04,-1.934 0.117,-2.893 13.16,7.627 23.787,22.37 26.864,37.266 -15.466,-3.785 -26.981,-17.756 -26.981,-34.373 z"
       id="path4769"
       style="fill:#000000;fill-opacity:0.256649;stroke:#000000;stroke-opacity:1" />
  </g>
  <g
     id="g4787"
     transform="matrix(0.14555505,0,0,0.14555505,63.730911,118.42016)"
     style="fill:#000000;fill-opacity:0.150694;stroke:#000000;stroke-opacity:1">
    <path
       d="m 126.184,358.951 c 19.299,0 35,-15.701 35,-35 0,-19.299 -15.701,-35 -35,-35 -19.299,0 -35,15.701 -35,35 0,19.299 15.701,35 35,35 z m 0,-55 c 11.028,0 20,8.972 20,20 0,11.028 -8.972,20 -20,20 -11.028,0 -20,-8.972 -20,-20 0,-11.028 8.971,-20 20,-20 z"
       id="path4779"
       style="fill:#000000;fill-opacity:0.150694;stroke:#000000;stroke-opacity:1" />
    <path
       d="m 343.816,288.951 c -19.299,0 -35,15.701 -35,35 0,19.299 15.701,35 35,35 19.299,0 35,-15.701 35,-35 0,-19.299 -15.701,-35 -35,-35 z m 0,55 c -11.028,0 -20,-8.972 -20,-20 0,-11.028 8.972,-20 20,-20 11.028,0 20,8.972 20,20 0,11.028 -8.971,20 -20,20 z"
       id="path4781"
       style="fill:#000000;fill-opacity:0.150694;stroke:#000000;stroke-opacity:1" />
    <path
       d="m 137.5,116.049 h 23.779 c 4.143,0 7.5,-3.358 7.5,-7.5 0,-4.142 -3.357,-7.5 -7.5,-7.5 H 137.5 c -10.423,0 -27.031,7.176 -34.177,14.767 l -60.088,63.845 c -2.051,2.179 -2.609,5.368 -1.423,8.115 1.187,2.747 3.893,4.525 6.885,4.525 h 290.271 c 2.562,0 4.945,-1.307 6.323,-3.467 1.377,-2.159 1.558,-4.873 0.478,-7.195 L 314.915,115.274 C 311.6,108.228 300.287,101.049 292.5,101.049 H 191.279 c -4.143,0 -7.5,3.358 -7.5,7.5 l -0.001,68.752 H 66.056 l 48.19,-51.204 c 4.243,-4.508 17.066,-10.048 23.254,-10.048 z m 61.279,0 h 93.7 c 2.203,0.103 7.842,3.681 8.849,5.581 l 25.883,55.671 H 198.778 Z"
       id="path4783"
       style="fill:#000000;fill-opacity:0.150694;stroke:#000000;stroke-opacity:1" />
    <path
       d="m 470,257.692 c 0,-26.631 -20.555,-55.149 -45.819,-63.57 -0.017,-0.006 -35.078,-11.693 -35.078,-11.693 -5.854,-1.951 -13.576,-8.812 -16.203,-14.394 L 342.06,102.5 C 333.761,84.864 311.992,71.049 292.5,71.049 h -155 c -18.639,0 -43.247,10.632 -56.022,24.206 L 12.32,168.737 C 5.411,176.077 0,189.721 0,199.801 v 94.15 c 0,20.678 16.822,37.5 37.5,37.5 h 14.06 c 3.775,37.846 35.8,67.5 74.624,67.5 38.824,0 70.849,-29.654 74.624,-67.5 h 45.509 c 4.143,0 7.5,-3.358 7.5,-7.5 0,-4.142 -3.357,-7.5 -7.5,-7.5 h -45.509 c -3.775,-37.846 -35.8,-67.5 -74.624,-67.5 -38.824,0 -70.849,29.654 -74.624,67.5 H 37.5 c -12.406,0 -22.5,-10.093 -22.5,-22.5 v -94.15 c 0,-6.294 3.929,-16.2 8.242,-20.783 L 92.401,105.535 C 102.342,94.972 122.995,86.049 137.5,86.049 h 155 c 13.682,0 30.162,10.458 35.987,22.838 l 30.84,65.535 c 4.421,9.395 15.182,18.955 25.031,22.238 l 28.498,9.499 c -0.492,2.841 -0.748,5.729 -0.748,8.642 0,25.238 18.65,46.198 42.892,49.831 v 29.32 c 0,12.407 -8.357,22.5 -18.631,22.5 H 418.44 c -3.775,-37.846 -35.8,-67.5 -74.624,-67.5 -41.355,0 -75,33.645 -75,75 0,41.355 33.645,75 75,75 38.824,0 70.849,-29.654 74.624,-67.5 h 17.929 c 18.544,0 33.631,-16.822 33.631,-37.5 z m -343.816,6.259 c 33.084,0 60,26.916 60,60 0,33.084 -26.916,60 -60,60 -33.084,0 -60,-26.916 -60,-60 0,-33.084 26.916,-60 60,-60 z m 217.632,120 c -33.084,0 -60,-26.916 -60,-60 0,-33.084 26.916,-60 60,-60 33.084,0 60,26.916 60,60 0,33.084 -26.916,60 -60,60 z m 83.292,-169.15 c 0,-0.969 0.04,-1.934 0.117,-2.893 13.16,7.627 23.787,22.37 26.864,37.266 -15.466,-3.785 -26.981,-17.756 -26.981,-34.373 z"
       id="path4785"
       style="fill:#000000;fill-opacity:0.150694;stroke:#000000;stroke-opacity:1" />
  </g>
  <text
     xml:space="preserve"
     id="text6999"
     style="font-style:normal;font-weight:normal;font-size:14.6667px;line-height:1.25;font-family:sans-serif;white-space:pre;shape-inside:url(#rect7001);display:inline;fill:#000000;fill-opacity:1;stroke:none"
     transform="translate(-171.286,209.77303)"><tspan
       x="307.31055"
       y="14.625292"
       id="tspan7196">Low</tspan></text>
  <path
     style="fill:none;stroke:#000000;stroke-width:1.602;stroke-linecap:butt;stroke-linejoin:miter;stroke-dasharray:4.80601335,1.602;stroke-dashoffset:0;stroke-opacity:1"
     d="m 150.92974,180.76971 v 31.00257"
     id="path7072" />
  <path
     style="fill:none;stroke:#000000;stroke-width:1.602;stroke-linecap:butt;stroke-linejoin:miter;stroke-dasharray:4.80601, 1.602;stroke-dashoffset:0;stroke-opacity:1"
     d="m 352.16525,180.76971 v 31.00257"
     id="path7080" />
  <text
     xml:space="preserve"
     id="text7088"
     style="font-style:normal;font-weight:normal;font-size:14.6667px;line-height:1.25;font-family:sans-serif;white-space:pre;shape-inside:url(#rect7090);display:inline;fill:#000000;fill-opacity:1;stroke:none"
     transform="translate(27.403502,209.77303)"><tspan
       x="307.31055"
       y="14.625292"
       id="tspan7198">High</tspan></text>
</svg>
